<svg xmlns="http://www.w3.org/2000/svg" xmlns:xlink="http://www.w3.org/1999/xlink" width="1123" zoomAndPan="magnify" viewBox="0 0 842.25 595.499986" height="794" preserveAspectRatio="xMidYMid meet" version="1.0"><defs><clipPath id="8bd11fccca"><path d="M 109.035156 33.3125 L 404.382812 33.3125 L 404.382812 415.617188 L 109.035156 415.617188 Z M 109.035156 33.3125 " clip-rule="nonzero"/></clipPath><clipPath id="f5a014e5bb"><rect x="0" width="514" y="0" height="515"/></clipPath></defs><g transform="matrix(1, 0, 0, 1, 164, 73)"><g clip-path="url(#f5a014e5bb)"><g clip-path="url(#8bd11fccca)"><path fill="#007970" d="M 109.039062 415.628906 L 140.402344 415.628906 L 140.402344 301.492188 L 166.617188 275.277344 L 166.617188 415.628906 L 197.980469 415.628906 L 197.980469 243.914062 L 251.496094 190.398438 C 251.496094 190.398438 298.738281 237.640625 298.738281 237.640625 C 298.738281 237.640625 298.738281 415.628906 298.738281 415.628906 L 404.414062 415.628906 L 404.414062 191.648438 L 246.148438 33.382812 L 166.617188 112.917969 L 166.617188 230.921875 L 109.039062 288.5 Z M 197.980469 199.558594 L 251.496094 146.042969 L 330.105469 224.648438 C 330.105469 224.648438 330.105469 384.261719 330.105469 384.261719 C 330.105469 384.261719 373.046875 384.261719 373.046875 384.261719 C 373.046875 342.984375 373.046875 232.578125 373.046875 204.636719 C 373.046875 204.636719 246.148438 77.742188 246.148438 77.742188 C 246.148438 77.742188 197.980469 125.910156 197.980469 125.910156 Z M 248.875 268.933594 L 230.371094 268.933594 L 230.371094 287.441406 L 248.875 287.441406 Z M 273.511719 268.933594 L 255.007812 268.933594 L 255.007812 287.441406 L 273.511719 287.441406 Z M 248.875 244.027344 L 230.371094 244.027344 L 230.371094 262.535156 L 248.875 262.535156 Z M 273.511719 244.027344 L 255.007812 244.027344 L 255.007812 262.535156 L 273.511719 262.535156 Z M 273.511719 244.027344 " fill-opacity="1" fill-rule="evenodd"/></g></g></g></svg>